<svg width="24" height="24" viewBox="0 0 24 24" fill="none" xmlns="http://www.w3.org/2000/svg">
<path fill-rule="evenodd" clip-rule="evenodd" d="M3.58694 18.5017C3.73294 18.6181 3.92494 18.6758 4.11694 18.6758C4.30894 18.6758 4.50094 18.6181 4.64694 18.5017L6.87345 16.739C6.92623 16.7073 6.97439 16.6695 7.01616 16.626L20.4209 6.01393C20.7139 5.78197 20.7139 5.40593 20.4209 5.17397C20.1279 4.94201 19.6539 4.94201 19.3609 5.17397L17.4828 6.66091C15.8077 5.87843 13.9243 5.46696 12 5.46696C6.46 5.46696 2 8.95346 2 11.8399C2 13.3834 3.25593 15.0906 5.26054 16.3375L3.58694 17.6625C3.29394 17.8945 3.29394 18.2697 3.58694 18.5017ZM6.33034 15.4905C4.61714 14.4653 3.5 13.0429 3.5 11.8399C3.5 9.50604 7.422 6.65446 12 6.65446C13.5267 6.65446 15.0248 6.95639 16.3817 7.53266L14.1884 9.26917C13.5464 8.92694 12.7807 8.7378 12.0019 8.7378H11.9929C10.9479 8.73939 9.96687 9.06318 9.22887 9.64901C8.49187 10.2348 8.08687 11.0131 8.08987 11.8364C8.08685 12.454 8.32499 13.0608 8.7585 13.5681L6.33034 15.4905ZM9.85147 12.7028L13.0949 10.1349C12.7582 9.99885 12.382 9.9253 12.0009 9.9253H11.9959C11.3509 9.92609 10.7459 10.1256 10.2919 10.4866C9.83787 10.8484 9.58787 11.3273 9.58987 11.8372C9.58807 12.1399 9.68027 12.4372 9.85147 12.7028Z" />
<path d="M11.9983 18.2134C11.0513 18.2134 10.1003 18.1105 9.16833 17.9062C8.76933 17.8192 8.53533 17.4922 8.64533 17.1763C8.75533 16.8597 9.17133 16.6752 9.56833 16.7623C10.3693 16.9372 11.1863 17.0259 11.9983 17.0259C16.5813 17.0259 20.5083 14.1743 20.5083 11.8397C20.5083 11.0837 20.0643 10.2215 19.2593 9.41403C19.0033 9.15674 19.0593 8.78308 19.3843 8.57962C19.7093 8.37695 20.1813 8.42049 20.4373 8.67778C21.4503 9.69508 22.0083 10.8177 22.0083 11.8397C22.0083 14.7269 17.5433 18.2134 11.9983 18.2134Z" />
<path d="M12.5703 14.889C12.2153 14.889 11.9003 14.6887 11.8333 14.4029C11.7583 14.0807 12.0283 13.7704 12.4363 13.7118C13.4153 13.5685 14.1933 12.9526 14.3703 12.1768C14.4443 11.8538 14.8333 11.6416 15.2423 11.6986C15.6493 11.7572 15.9203 12.0659 15.8463 12.3889C15.5583 13.6477 14.2973 14.6476 12.7063 14.8787C12.6613 14.8859 12.6153 14.889 12.5703 14.889Z" />
</svg>
